<svg width="204" height="46" viewBox="0 0 204 46" fill="none" xmlns="http://www.w3.org/2000/svg">
<rect width="46" height="46" rx="23" fill="#FFE8FB"/>
<path d="M22 30V20H15V30H22ZM22 18V15C22 14.4477 22.4477 14 23 14H32C32.5523 14 33 14.4477 33 15V31C33 31.5523 32.5523 32 32 32H14C13.4477 32 13 31.5523 13 31V19C13 18.4477 13.4477 18 14 18H22ZM24 16V30H31V16H24ZM16 27H21V29H16V27ZM25 27H30V29H25V27ZM25 24H30V26H25V24ZM25 21H30V23H25V21ZM16 24H21V26H16V24Z" fill="#9B50BE"/>
<path d="M59.0114 28.5V16.8636H63.6705C64.5265 16.8636 65.2405 16.9905 65.8125 17.2443C66.3845 17.4981 66.8144 17.8504 67.1023 18.3011C67.3902 18.7481 67.5341 19.2633 67.5341 19.8466C67.5341 20.3011 67.4432 20.7008 67.2614 21.0455C67.0795 21.3864 66.8295 21.6667 66.5114 21.8864C66.197 22.1023 65.8371 22.2557 65.4318 22.3466V22.4602C65.875 22.4792 66.2898 22.6042 66.6761 22.8352C67.0663 23.0663 67.3826 23.3902 67.625 23.8068C67.8674 24.2197 67.9886 24.7121 67.9886 25.2841C67.9886 25.9015 67.8352 26.4527 67.5284 26.9375C67.2254 27.4186 66.7765 27.7992 66.1818 28.0795C65.5871 28.3598 64.8542 28.5 63.983 28.5H59.0114ZM61.4716 26.4886H63.4773C64.1629 26.4886 64.6629 26.358 64.9773 26.0966C65.2917 25.8314 65.4489 25.4792 65.4489 25.0398C65.4489 24.7178 65.3712 24.4337 65.2159 24.1875C65.0606 23.9413 64.839 23.7481 64.5511 23.608C64.267 23.4678 63.928 23.3977 63.5341 23.3977H61.4716V26.4886ZM61.4716 21.733H63.2955C63.6326 21.733 63.9318 21.6742 64.1932 21.5568C64.4583 21.4356 64.6667 21.2652 64.8182 21.0455C64.9735 20.8258 65.0511 20.5625 65.0511 20.2557C65.0511 19.8352 64.9015 19.4962 64.6023 19.2386C64.3068 18.9811 63.8864 18.8523 63.3409 18.8523H61.4716V21.733ZM71.7127 28.6648C71.1559 28.6648 70.6596 28.5682 70.224 28.375C69.7884 28.178 69.4437 27.8883 69.1899 27.5057C68.9399 27.1193 68.8149 26.6383 68.8149 26.0625C68.8149 25.5777 68.904 25.1705 69.082 24.8409C69.26 24.5114 69.5024 24.2462 69.8093 24.0455C70.1161 23.8447 70.4646 23.6932 70.8547 23.5909C71.2487 23.4886 71.6615 23.4167 72.0934 23.375C72.6009 23.322 73.01 23.2727 73.3206 23.2273C73.6312 23.178 73.8566 23.1061 73.9968 23.0114C74.1369 22.9167 74.207 22.7765 74.207 22.5909V22.5568C74.207 22.197 74.0934 21.9186 73.8661 21.7216C73.6426 21.5246 73.3244 21.4261 72.9115 21.4261C72.4759 21.4261 72.1293 21.5227 71.8718 21.7159C71.6142 21.9053 71.4437 22.1439 71.3604 22.4318L69.1218 22.25C69.2354 21.7197 69.4589 21.2614 69.7922 20.875C70.1255 20.4848 70.5555 20.1856 71.082 19.9773C71.6123 19.7652 72.2259 19.6591 72.9229 19.6591C73.4077 19.6591 73.8718 19.7159 74.3149 19.8295C74.7619 19.9432 75.1577 20.1193 75.5024 20.358C75.8509 20.5966 76.1255 20.9034 76.3263 21.2784C76.5271 21.6496 76.6274 22.0947 76.6274 22.6136V28.5H74.332V27.2898H74.2638C74.1237 27.5625 73.9362 27.803 73.7013 28.0114C73.4665 28.2159 73.1843 28.3769 72.8547 28.4943C72.5252 28.608 72.1445 28.6648 71.7127 28.6648ZM72.4059 26.9943C72.7619 26.9943 73.0763 26.9242 73.349 26.7841C73.6218 26.6402 73.8358 26.447 73.9911 26.2045C74.1464 25.9621 74.224 25.6875 74.224 25.3807V24.4545C74.1483 24.5038 74.0441 24.5492 73.9115 24.5909C73.7827 24.6288 73.6369 24.6648 73.474 24.6989C73.3112 24.7292 73.1483 24.7576 72.9854 24.7841C72.8225 24.8068 72.6748 24.8277 72.5422 24.8466C72.2581 24.8883 72.01 24.9545 71.7979 25.0455C71.5858 25.1364 71.421 25.2595 71.3036 25.4148C71.1862 25.5663 71.1274 25.7557 71.1274 25.983C71.1274 26.3125 71.2468 26.5644 71.4854 26.7386C71.7278 26.9091 72.0346 26.9943 72.4059 26.9943ZM82.1285 28.6705C81.2345 28.6705 80.4656 28.4811 79.8216 28.1023C79.1815 27.7197 78.6891 27.1894 78.3444 26.5114C78.0035 25.8333 77.833 25.053 77.833 24.1705C77.833 23.2765 78.0054 22.4924 78.3501 21.8182C78.6985 21.1402 79.1929 20.6117 79.833 20.233C80.4732 19.8504 81.2345 19.6591 82.1171 19.6591C82.8785 19.6591 83.5451 19.7973 84.1171 20.0739C84.6891 20.3504 85.1417 20.7386 85.4751 21.2386C85.8084 21.7386 85.9921 22.3258 86.0262 23H83.7421C83.6777 22.5644 83.5073 22.214 83.2307 21.9489C82.958 21.6799 82.6001 21.5455 82.1569 21.5455C81.7819 21.5455 81.4542 21.6477 81.1739 21.8523C80.8974 22.053 80.6815 22.3466 80.5262 22.733C80.3709 23.1193 80.2932 23.5871 80.2932 24.1364C80.2932 24.6932 80.369 25.1667 80.5205 25.5568C80.6758 25.947 80.8936 26.2443 81.1739 26.4489C81.4542 26.6534 81.7819 26.7557 82.1569 26.7557C82.4334 26.7557 82.6815 26.6989 82.9012 26.5852C83.1247 26.4716 83.3084 26.3068 83.4523 26.0909C83.6001 25.8712 83.6966 25.608 83.7421 25.3011H86.0262C85.9883 25.9678 85.8065 26.5549 85.4807 27.0625C85.1588 27.5663 84.7137 27.9602 84.1455 28.2443C83.5773 28.5284 82.905 28.6705 82.1285 28.6705ZM89.4491 25.9886L89.4548 23.0852H89.807L92.6025 19.7727H95.3809L91.6252 24.1591H91.0514L89.4491 25.9886ZM87.2559 28.5V16.8636H89.6764V28.5H87.2559ZM92.7105 28.5L90.1423 24.6989L91.7559 22.9886L95.5457 28.5H92.7105ZM101.389 22.7614V24.6818H96.0822V22.7614H101.389ZM103.177 28.5V16.8636H111.018V18.892H105.637V21.6648H110.614V23.6932H105.637V26.4716H111.041V28.5H103.177ZM115.029 23.4545V28.5H112.608V19.7727H114.915V21.3125H115.018C115.211 20.8049 115.535 20.4034 115.989 20.108C116.444 19.8087 116.995 19.6591 117.643 19.6591C118.249 19.6591 118.777 19.7917 119.228 20.0568C119.678 20.322 120.029 20.7008 120.279 21.1932C120.529 21.6818 120.654 22.2652 120.654 22.9432V28.5H118.233V23.375C118.237 22.8409 118.101 22.4242 117.824 22.125C117.548 21.822 117.167 21.6705 116.682 21.6705C116.357 21.6705 116.069 21.7405 115.819 21.8807C115.572 22.0208 115.379 22.2254 115.239 22.4943C115.103 22.7595 115.033 23.0795 115.029 23.4545ZM125.457 28.642C124.795 28.642 124.194 28.4716 123.656 28.1307C123.122 27.786 122.698 27.2803 122.384 26.6136C122.073 25.9432 121.918 25.1212 121.918 24.1477C121.918 23.1477 122.079 22.3163 122.401 21.6534C122.723 20.9867 123.151 20.4886 123.685 20.1591C124.223 19.8258 124.812 19.6591 125.452 19.6591C125.94 19.6591 126.348 19.7424 126.673 19.9091C127.003 20.072 127.268 20.2765 127.469 20.5227C127.673 20.7652 127.829 21.0038 127.935 21.2386H128.009V16.8636H130.423V28.5H128.037V27.1023H127.935C127.821 27.3447 127.66 27.5852 127.452 27.8239C127.247 28.0587 126.98 28.2538 126.651 28.4091C126.325 28.5644 125.927 28.642 125.457 28.642ZM126.224 26.7159C126.615 26.7159 126.944 26.6098 127.213 26.3977C127.486 26.1818 127.694 25.8807 127.838 25.4943C127.986 25.108 128.06 24.6553 128.06 24.1364C128.06 23.6174 127.988 23.1667 127.844 22.7841C127.7 22.4015 127.492 22.1061 127.219 21.8977C126.946 21.6894 126.615 21.5852 126.224 21.5852C125.827 21.5852 125.492 21.6932 125.219 21.9091C124.946 22.125 124.74 22.4242 124.599 22.8068C124.459 23.1894 124.389 23.6326 124.389 24.1364C124.389 24.6439 124.459 25.0928 124.599 25.483C124.743 25.8693 124.95 26.1723 125.219 26.392C125.492 26.608 125.827 26.7159 126.224 26.7159Z" fill="black"/>
<path d="M193.923 17.9689C193.639 17.6681 193.177 17.6681 192.892 17.9689C192.607 18.2697 192.607 18.7573 192.892 19.0581L195.696 22.0193H185.486C185.083 22.0193 184.757 22.3642 184.757 22.7895C184.757 23.2149 185.083 23.5597 185.486 23.5597H195.844L192.892 26.677C192.607 26.9778 192.607 27.4654 192.892 27.7662C193.177 28.067 193.639 28.067 193.923 27.7662L198.046 23.4122C198.331 23.1114 198.331 22.6237 198.046 22.3229L197.977 22.2501C197.974 22.2466 197.97 22.2432 197.967 22.2397L193.923 17.9689Z" fill="#75767D"/>
</svg>
