<svg width="204" height="46" viewBox="0 0 204 46" fill="none" xmlns="http://www.w3.org/2000/svg">
<rect width="46" height="46" rx="23" fill="#E8F2FF"/>
<path d="M25 20V15H16V31H22.0563C22.3838 31.4171 22.7803 31.7847 23.236 32.0848L24.626 33H14.9934C14.445 33 14 32.556 14 32.0082V13.9918C14 13.4553 14.4487 13 15.0022 13H25.9968L32 19V20H25ZM23 22H32V27.949C32 28.9397 31.4987 29.8648 30.6641 30.4144L27.5 32.4978L24.3359 30.4144C23.5013 29.8648 23 28.9397 23 27.949V22ZM25 27.949C25 28.2652 25.1616 28.5634 25.4358 28.744L27.5 30.1032L29.5642 28.744C29.8384 28.5634 30 28.2652 30 27.949V24H25V27.949Z" fill="#234EF6"/>
<path d="M69.2784 20.9375H66.7898C66.7443 20.6155 66.6515 20.3295 66.5114 20.0795C66.3712 19.8258 66.1913 19.6098 65.9716 19.4318C65.7519 19.2538 65.4981 19.1174 65.2102 19.0227C64.9261 18.928 64.6174 18.8807 64.2841 18.8807C63.6818 18.8807 63.1572 19.0303 62.7102 19.3295C62.2633 19.625 61.9167 20.0568 61.6705 20.625C61.4242 21.1894 61.3011 21.875 61.3011 22.6818C61.3011 23.5114 61.4242 24.2083 61.6705 24.7727C61.9205 25.3371 62.2689 25.7633 62.7159 26.0511C63.1629 26.339 63.6799 26.483 64.267 26.483C64.5966 26.483 64.9015 26.4394 65.1818 26.3523C65.4659 26.2652 65.7178 26.1383 65.9375 25.9716C66.1572 25.8011 66.339 25.5947 66.483 25.3523C66.6307 25.1098 66.733 24.8333 66.7898 24.5227L69.2784 24.5341C69.214 25.0682 69.053 25.5833 68.7955 26.0795C68.5417 26.572 68.1989 27.0133 67.767 27.4034C67.339 27.7898 66.8277 28.0966 66.233 28.3239C65.642 28.5473 64.9735 28.6591 64.2273 28.6591C63.1894 28.6591 62.2614 28.4242 61.4432 27.9545C60.6288 27.4848 59.9848 26.8049 59.5114 25.9148C59.0417 25.0246 58.8068 23.947 58.8068 22.6818C58.8068 21.4129 59.0455 20.3333 59.5227 19.4432C60 18.553 60.6477 17.875 61.4659 17.4091C62.2841 16.9394 63.2045 16.7045 64.2273 16.7045C64.9015 16.7045 65.5265 16.7992 66.1023 16.9886C66.6818 17.178 67.1951 17.4545 67.642 17.8182C68.089 18.178 68.4527 18.6193 68.733 19.142C69.017 19.6648 69.1989 20.2633 69.2784 20.9375ZM72.2809 31.7727C71.974 31.7727 71.6862 31.7481 71.4172 31.6989C71.1521 31.6534 70.9324 31.5947 70.7581 31.5227L71.3036 29.7159C71.5877 29.803 71.8434 29.8504 72.0706 29.858C72.3017 29.8655 72.5005 29.8125 72.6672 29.6989C72.8377 29.5852 72.9759 29.392 73.082 29.1193L73.224 28.75L70.0934 19.7727H72.6388L74.4456 26.1818H74.5365L76.3604 19.7727H78.9229L75.5309 29.4432C75.368 29.9129 75.1464 30.322 74.8661 30.6705C74.5896 31.0227 74.2392 31.2936 73.8149 31.483C73.3907 31.6761 72.8793 31.7727 72.2809 31.7727ZM79.887 28.5V16.8636H82.3074V21.2386H82.3813C82.4874 21.0038 82.6408 20.7652 82.8415 20.5227C83.0461 20.2765 83.3112 20.072 83.637 19.9091C83.9665 19.7424 84.3756 19.6591 84.8643 19.6591C85.5006 19.6591 86.0877 19.8258 86.6256 20.1591C87.1635 20.4886 87.5934 20.9867 87.9154 21.6534C88.2374 22.3163 88.3984 23.1477 88.3984 24.1477C88.3984 25.1212 88.2412 25.9432 87.9268 26.6136C87.6162 27.2803 87.1919 27.786 86.654 28.1307C86.1199 28.4716 85.5215 28.642 84.8586 28.642C84.3889 28.642 83.9893 28.5644 83.6597 28.4091C83.334 28.2538 83.0669 28.0587 82.8586 27.8239C82.6502 27.5852 82.4912 27.3447 82.3813 27.1023H82.2734V28.5H79.887ZM82.2563 24.1364C82.2563 24.6553 82.3283 25.108 82.4722 25.4943C82.6162 25.8807 82.8245 26.1818 83.0972 26.3977C83.3699 26.6098 83.7014 26.7159 84.0915 26.7159C84.4855 26.7159 84.8188 26.608 85.0915 26.392C85.3643 26.1723 85.5707 25.8693 85.7109 25.483C85.8548 25.0928 85.9268 24.6439 85.9268 24.1364C85.9268 23.6326 85.8567 23.1894 85.7165 22.8068C85.5764 22.4242 85.3699 22.125 85.0972 21.9091C84.8245 21.6932 84.4893 21.5852 84.0915 21.5852C83.6976 21.5852 83.3643 21.6894 83.0915 21.8977C82.8226 22.1061 82.6162 22.4015 82.4722 22.7841C82.3283 23.1667 82.2563 23.6174 82.2563 24.1364ZM93.6707 28.6705C92.773 28.6705 92.0002 28.4886 91.3525 28.125C90.7086 27.7576 90.2123 27.2386 89.8639 26.5682C89.5154 25.8939 89.3411 25.0966 89.3411 24.1761C89.3411 23.2784 89.5154 22.4905 89.8639 21.8125C90.2123 21.1345 90.7029 20.6061 91.3355 20.2273C91.9718 19.8485 92.718 19.6591 93.5741 19.6591C94.1498 19.6591 94.6858 19.7519 95.182 19.9375C95.682 20.1193 96.1177 20.3939 96.4889 20.7614C96.8639 21.1288 97.1555 21.5909 97.3639 22.1477C97.5722 22.7008 97.6764 23.3485 97.6764 24.0909V24.7557H90.307V23.2557H95.398C95.398 22.9072 95.3222 22.5985 95.1707 22.3295C95.0192 22.0606 94.8089 21.8504 94.54 21.6989C94.2748 21.5436 93.9661 21.4659 93.6139 21.4659C93.2464 21.4659 92.9207 21.5511 92.6366 21.7216C92.3563 21.8883 92.1366 22.1136 91.9775 22.3977C91.8184 22.678 91.737 22.9905 91.7332 23.3352V24.7614C91.7332 25.1932 91.8127 25.5663 91.9718 25.8807C92.1347 26.1951 92.3639 26.4375 92.6593 26.608C92.9548 26.7784 93.3052 26.8636 93.7105 26.8636C93.9794 26.8636 94.2256 26.8258 94.4491 26.75C94.6726 26.6742 94.8639 26.5606 95.023 26.4091C95.182 26.2576 95.3033 26.072 95.3866 25.8523L97.6252 26C97.5116 26.5379 97.2786 27.0076 96.9264 27.4091C96.5779 27.8068 96.1271 28.1174 95.5741 28.3409C95.0248 28.5606 94.3904 28.6705 93.6707 28.6705ZM98.9359 28.5V19.7727H101.283V21.2955H101.373C101.533 20.7538 101.8 20.3447 102.175 20.0682C102.55 19.7879 102.981 19.6477 103.47 19.6477C103.591 19.6477 103.722 19.6553 103.862 19.6705C104.002 19.6856 104.125 19.7064 104.231 19.733V21.8807C104.118 21.8466 103.961 21.8163 103.76 21.7898C103.559 21.7633 103.375 21.75 103.209 21.75C102.853 21.75 102.534 21.8277 102.254 21.983C101.978 22.1345 101.758 22.3466 101.595 22.6193C101.436 22.892 101.356 23.2064 101.356 23.5625V28.5H98.9359ZM112.424 22.2614L110.208 22.3977C110.17 22.2083 110.089 22.0379 109.964 21.8864C109.839 21.7311 109.674 21.608 109.47 21.517C109.269 21.4223 109.028 21.375 108.748 21.375C108.373 21.375 108.057 21.4545 107.799 21.6136C107.542 21.7689 107.413 21.9773 107.413 22.2386C107.413 22.447 107.496 22.6231 107.663 22.767C107.829 22.911 108.115 23.0265 108.521 23.1136L110.1 23.4318C110.949 23.6061 111.581 23.8864 111.998 24.2727C112.415 24.6591 112.623 25.1667 112.623 25.7955C112.623 26.3674 112.454 26.8693 112.117 27.3011C111.784 27.733 111.326 28.0701 110.742 28.3125C110.163 28.5511 109.494 28.6705 108.737 28.6705C107.581 28.6705 106.661 28.4299 105.975 27.9489C105.293 27.464 104.894 26.8049 104.776 25.9716L107.157 25.8466C107.229 26.1989 107.403 26.4678 107.68 26.6534C107.956 26.8352 108.311 26.9261 108.742 26.9261C109.167 26.9261 109.507 26.8447 109.765 26.6818C110.026 26.5152 110.159 26.3011 110.163 26.0398C110.159 25.8201 110.066 25.6402 109.884 25.5C109.703 25.3561 109.422 25.2462 109.043 25.1705L107.532 24.8693C106.68 24.6989 106.045 24.4034 105.629 23.983C105.216 23.5625 105.009 23.0265 105.009 22.375C105.009 21.8144 105.161 21.3314 105.464 20.9261C105.771 20.5208 106.201 20.2083 106.754 19.9886C107.311 19.7689 107.962 19.6591 108.708 19.6591C109.811 19.6591 110.678 19.892 111.311 20.358C111.947 20.8239 112.318 21.4583 112.424 22.2614ZM117.804 28.6705C116.907 28.6705 116.134 28.4886 115.486 28.125C114.842 27.7576 114.346 27.2386 113.998 26.5682C113.649 25.8939 113.475 25.0966 113.475 24.1761C113.475 23.2784 113.649 22.4905 113.998 21.8125C114.346 21.1345 114.837 20.6061 115.469 20.2273C116.106 19.8485 116.852 19.6591 117.708 19.6591C118.284 19.6591 118.82 19.7519 119.316 19.9375C119.816 20.1193 120.251 20.3939 120.623 20.7614C120.998 21.1288 121.289 21.5909 121.498 22.1477C121.706 22.7008 121.81 23.3485 121.81 24.0909V24.7557H114.441V23.2557H119.532C119.532 22.9072 119.456 22.5985 119.304 22.3295C119.153 22.0606 118.943 21.8504 118.674 21.6989C118.409 21.5436 118.1 21.4659 117.748 21.4659C117.38 21.4659 117.054 21.5511 116.77 21.7216C116.49 21.8883 116.27 22.1136 116.111 22.3977C115.952 22.678 115.871 22.9905 115.867 23.3352V24.7614C115.867 25.1932 115.946 25.5663 116.106 25.8807C116.268 26.1951 116.498 26.4375 116.793 26.608C117.089 26.7784 117.439 26.8636 117.844 26.8636C118.113 26.8636 118.359 26.8258 118.583 26.75C118.806 26.6742 118.998 26.5606 119.157 26.4091C119.316 26.2576 119.437 26.072 119.52 25.8523L121.759 26C121.645 26.5379 121.412 27.0076 121.06 27.4091C120.712 27.8068 120.261 28.1174 119.708 28.3409C119.159 28.5606 118.524 28.6705 117.804 28.6705ZM127.013 28.6705C126.119 28.6705 125.35 28.4811 124.706 28.1023C124.066 27.7197 123.573 27.1894 123.229 26.5114C122.888 25.8333 122.717 25.053 122.717 24.1705C122.717 23.2765 122.89 22.4924 123.234 21.8182C123.583 21.1402 124.077 20.6117 124.717 20.233C125.358 19.8504 126.119 19.6591 127.001 19.6591C127.763 19.6591 128.43 19.7973 129.001 20.0739C129.573 20.3504 130.026 20.7386 130.359 21.2386C130.693 21.7386 130.876 22.3258 130.911 23H128.626C128.562 22.5644 128.392 22.214 128.115 21.9489C127.842 21.6799 127.484 21.5455 127.041 21.5455C126.666 21.5455 126.339 21.6477 126.058 21.8523C125.782 22.053 125.566 22.3466 125.411 22.733C125.255 23.1193 125.178 23.5871 125.178 24.1364C125.178 24.6932 125.253 25.1667 125.405 25.5568C125.56 25.947 125.778 26.2443 126.058 26.4489C126.339 26.6534 126.666 26.7557 127.041 26.7557C127.318 26.7557 127.566 26.6989 127.786 26.5852C128.009 26.4716 128.193 26.3068 128.337 26.0909C128.484 25.8712 128.581 25.608 128.626 25.3011H130.911C130.873 25.9678 130.691 26.5549 130.365 27.0625C130.043 27.5663 129.598 27.9602 129.03 28.2443C128.462 28.5284 127.789 28.6705 127.013 28.6705ZM137.737 24.7841V19.7727H140.157V28.5H137.833V26.9148H137.743C137.546 27.4261 137.218 27.8371 136.76 28.1477C136.305 28.4583 135.75 28.6136 135.095 28.6136C134.511 28.6136 133.998 28.4811 133.555 28.2159C133.112 27.9508 132.765 27.5739 132.515 27.0852C132.269 26.5966 132.144 26.0114 132.14 25.3295V19.7727H134.561V24.8977C134.565 25.4129 134.703 25.8201 134.976 26.1193C135.248 26.4186 135.614 26.5682 136.072 26.5682C136.364 26.5682 136.636 26.5019 136.89 26.3693C137.144 26.233 137.349 26.0322 137.504 25.767C137.663 25.5019 137.741 25.1742 137.737 24.7841ZM141.773 28.5V19.7727H144.12V21.2955H144.211C144.37 20.7538 144.637 20.3447 145.012 20.0682C145.387 19.7879 145.819 19.6477 146.308 19.6477C146.429 19.6477 146.559 19.6553 146.7 19.6705C146.84 19.6856 146.963 19.7064 147.069 19.733V21.8807C146.955 21.8466 146.798 21.8163 146.597 21.7898C146.397 21.7633 146.213 21.75 146.046 21.75C145.69 21.75 145.372 21.8277 145.092 21.983C144.815 22.1345 144.595 22.3466 144.433 22.6193C144.273 22.892 144.194 23.2064 144.194 23.5625V28.5H141.773ZM148 28.5V19.7727H150.421V28.5H148ZM149.216 18.6477C148.856 18.6477 148.548 18.5284 148.29 18.2898C148.036 18.0473 147.909 17.7576 147.909 17.4205C147.909 17.0871 148.036 16.8011 148.29 16.5625C148.548 16.3201 148.856 16.1989 149.216 16.1989C149.576 16.1989 149.883 16.3201 150.137 16.5625C150.394 16.8011 150.523 17.0871 150.523 17.4205C150.523 17.7576 150.394 18.0473 150.137 18.2898C149.883 18.5284 149.576 18.6477 149.216 18.6477ZM156.682 19.7727V21.5909H151.426V19.7727H156.682ZM152.619 17.6818H155.04V25.8182C155.04 26.0417 155.074 26.2159 155.142 26.3409C155.21 26.4621 155.305 26.5473 155.426 26.5966C155.551 26.6458 155.695 26.6705 155.858 26.6705C155.971 26.6705 156.085 26.661 156.199 26.642C156.312 26.6193 156.4 26.6023 156.46 26.5909L156.841 28.392C156.72 28.4299 156.549 28.4735 156.329 28.5227C156.11 28.5758 155.843 28.608 155.528 28.6193C154.945 28.642 154.434 28.5644 153.994 28.3864C153.559 28.2083 153.22 27.9318 152.977 27.5568C152.735 27.1818 152.615 26.7083 152.619 26.1364V17.6818ZM159.433 31.7727C159.126 31.7727 158.838 31.7481 158.569 31.6989C158.304 31.6534 158.084 31.5947 157.91 31.5227L158.455 29.7159C158.74 29.803 158.995 29.8504 159.223 29.858C159.454 29.8655 159.652 29.8125 159.819 29.6989C159.99 29.5852 160.128 29.392 160.234 29.1193L160.376 28.75L157.245 19.7727H159.791L161.598 26.1818H161.688L163.512 19.7727H166.075L162.683 29.4432C162.52 29.9129 162.298 30.322 162.018 30.6705C161.741 31.0227 161.391 31.2936 160.967 31.483C160.543 31.6761 160.031 31.7727 159.433 31.7727Z" fill="black"/>
<path d="M193.923 17.9689C193.639 17.6681 193.177 17.6681 192.892 17.9689C192.607 18.2697 192.607 18.7573 192.892 19.0581L195.696 22.0193H185.486C185.083 22.0193 184.757 22.3642 184.757 22.7895C184.757 23.2149 185.083 23.5597 185.486 23.5597H195.844L192.892 26.677C192.607 26.9778 192.607 27.4654 192.892 27.7662C193.177 28.067 193.639 28.067 193.923 27.7662L198.046 23.4122C198.331 23.1114 198.331 22.6237 198.046 22.3229L197.977 22.2501C197.974 22.2466 197.97 22.2432 197.967 22.2397L193.923 17.9689Z" fill="#75767D"/>
</svg>
