<svg width="204" height="46" viewBox="0 0 204 46" fill="none" xmlns="http://www.w3.org/2000/svg">
<rect width="46" height="46" rx="23" fill="#EDE8FF"/>
<path d="M26 16.25C27.7949 16.25 29.25 14.7949 29.25 13H30.75C30.75 14.7949 32.2051 16.25 34 16.25V17.75C32.2051 17.75 30.75 19.2051 30.75 21H29.25C29.25 19.2051 27.7949 17.75 26 17.75V16.25ZM15 18C15 16.8954 15.8954 16 17 16H24V14H17C14.7909 14 13 15.7909 13 18V28C13 30.2091 14.7909 32 17 32H29C31.2091 32 33 30.2091 33 28V23H31V28C31 29.1046 30.1046 30 29 30H17C15.8954 30 15 29.1046 15 28V18Z" fill="#4D23F6"/>
<path d="M66.7273 20.625C66.6477 20.3485 66.536 20.1042 66.392 19.892C66.2481 19.6761 66.072 19.4943 65.8636 19.3466C65.6591 19.1951 65.4242 19.0795 65.1591 19C64.8977 18.9205 64.608 18.8807 64.2898 18.8807C63.6951 18.8807 63.1723 19.0284 62.7216 19.3239C62.2746 19.6193 61.9261 20.0492 61.6761 20.6136C61.4261 21.1742 61.3011 21.8598 61.3011 22.6705C61.3011 23.4811 61.4242 24.1705 61.6705 24.7386C61.9167 25.3068 62.2652 25.7405 62.7159 26.0398C63.1667 26.3352 63.6989 26.483 64.3125 26.483C64.8693 26.483 65.3447 26.3845 65.7386 26.1875C66.1364 25.9867 66.4394 25.7045 66.6477 25.3409C66.8598 24.9773 66.9659 24.5473 66.9659 24.0511L67.4659 24.125H64.4659V22.2727H69.3352V23.7386C69.3352 24.7614 69.1193 25.6402 68.6875 26.375C68.2557 27.1061 67.661 27.6705 66.9034 28.0682C66.1458 28.4621 65.2784 28.6591 64.3011 28.6591C63.2102 28.6591 62.2519 28.4186 61.4261 27.9375C60.6004 27.4527 59.9564 26.7652 59.4943 25.875C59.036 24.9811 58.8068 23.9205 58.8068 22.6932C58.8068 21.75 58.9432 20.9091 59.2159 20.1705C59.4924 19.428 59.8788 18.7992 60.375 18.2841C60.8712 17.7689 61.4489 17.3769 62.108 17.108C62.767 16.839 63.4811 16.7045 64.25 16.7045C64.9091 16.7045 65.5227 16.8011 66.0909 16.9943C66.6591 17.1837 67.1629 17.4527 67.6023 17.8011C68.0455 18.1496 68.4072 18.5644 68.6875 19.0455C68.9678 19.5227 69.1477 20.0492 69.2273 20.625H66.7273ZM74.7951 28.6705C73.8973 28.6705 73.1246 28.4886 72.4769 28.125C71.8329 27.7576 71.3367 27.2386 70.9882 26.5682C70.6398 25.8939 70.4655 25.0966 70.4655 24.1761C70.4655 23.2784 70.6398 22.4905 70.9882 21.8125C71.3367 21.1345 71.8273 20.6061 72.4598 20.2273C73.0962 19.8485 73.8424 19.6591 74.6985 19.6591C75.2742 19.6591 75.8102 19.7519 76.3064 19.9375C76.8064 20.1193 77.242 20.3939 77.6132 20.7614C77.9882 21.1288 78.2799 21.5909 78.4882 22.1477C78.6966 22.7008 78.8007 23.3485 78.8007 24.0909V24.7557H71.4314V23.2557H76.5223C76.5223 22.9072 76.4466 22.5985 76.2951 22.3295C76.1435 22.0606 75.9333 21.8504 75.6644 21.6989C75.3992 21.5436 75.0905 21.4659 74.7382 21.4659C74.3708 21.4659 74.0451 21.5511 73.761 21.7216C73.4807 21.8883 73.261 22.1136 73.1019 22.3977C72.9428 22.678 72.8613 22.9905 72.8576 23.3352V24.7614C72.8576 25.1932 72.9371 25.5663 73.0962 25.8807C73.2591 26.1951 73.4882 26.4375 73.7837 26.608C74.0791 26.7784 74.4295 26.8636 74.8348 26.8636C75.1038 26.8636 75.35 26.8258 75.5735 26.75C75.797 26.6742 75.9882 26.5606 76.1473 26.4091C76.3064 26.2576 76.4276 26.072 76.511 25.8523L78.7496 26C78.636 26.5379 78.403 27.0076 78.0507 27.4091C77.7023 27.8068 77.2515 28.1174 76.6985 28.3409C76.1492 28.5606 75.5148 28.6705 74.7951 28.6705ZM82.4807 23.4545V28.5H80.0603V19.7727H82.3671V21.3125H82.4694C82.6626 20.8049 82.9864 20.4034 83.441 20.108C83.8955 19.8087 84.4466 19.6591 85.0944 19.6591C85.7004 19.6591 86.2288 19.7917 86.6796 20.0568C87.1304 20.322 87.4807 20.7008 87.7307 21.1932C87.9807 21.6818 88.1057 22.2652 88.1057 22.9432V28.5H85.6853V23.375C85.6891 22.8409 85.5527 22.4242 85.2762 22.125C84.9997 21.822 84.619 21.6705 84.1341 21.6705C83.8084 21.6705 83.5205 21.7405 83.2705 21.8807C83.0243 22.0208 82.8311 22.2254 82.691 22.4943C82.5546 22.7595 82.4845 23.0795 82.4807 23.4545ZM93.6707 28.6705C92.773 28.6705 92.0002 28.4886 91.3525 28.125C90.7086 27.7576 90.2123 27.2386 89.8639 26.5682C89.5154 25.8939 89.3411 25.0966 89.3411 24.1761C89.3411 23.2784 89.5154 22.4905 89.8639 21.8125C90.2123 21.1345 90.7029 20.6061 91.3355 20.2273C91.9718 19.8485 92.718 19.6591 93.5741 19.6591C94.1498 19.6591 94.6858 19.7519 95.182 19.9375C95.682 20.1193 96.1177 20.3939 96.4889 20.7614C96.8639 21.1288 97.1555 21.5909 97.3639 22.1477C97.5722 22.7008 97.6764 23.3485 97.6764 24.0909V24.7557H90.307V23.2557H95.398C95.398 22.9072 95.3222 22.5985 95.1707 22.3295C95.0192 22.0606 94.8089 21.8504 94.54 21.6989C94.2748 21.5436 93.9661 21.4659 93.6139 21.4659C93.2464 21.4659 92.9207 21.5511 92.6366 21.7216C92.3563 21.8883 92.1366 22.1136 91.9775 22.3977C91.8184 22.678 91.737 22.9905 91.7332 23.3352V24.7614C91.7332 25.1932 91.8127 25.5663 91.9718 25.8807C92.1347 26.1951 92.3639 26.4375 92.6593 26.608C92.9548 26.7784 93.3052 26.8636 93.7105 26.8636C93.9794 26.8636 94.2256 26.8258 94.4491 26.75C94.6726 26.6742 94.8639 26.5606 95.023 26.4091C95.182 26.2576 95.3033 26.072 95.3866 25.8523L97.6252 26C97.5116 26.5379 97.2786 27.0076 96.9264 27.4091C96.5779 27.8068 96.1271 28.1174 95.5741 28.3409C95.0248 28.5606 94.3904 28.6705 93.6707 28.6705ZM98.9359 28.5V19.7727H101.283V21.2955H101.373C101.533 20.7538 101.8 20.3447 102.175 20.0682C102.55 19.7879 102.981 19.6477 103.47 19.6477C103.591 19.6477 103.722 19.6553 103.862 19.6705C104.002 19.6856 104.125 19.7064 104.231 19.733V21.8807C104.118 21.8466 103.961 21.8163 103.76 21.7898C103.559 21.7633 103.375 21.75 103.209 21.75C102.853 21.75 102.534 21.8277 102.254 21.983C101.978 22.1345 101.758 22.3466 101.595 22.6193C101.436 22.892 101.356 23.2064 101.356 23.5625V28.5H98.9359ZM107.401 28.6648C106.845 28.6648 106.348 28.5682 105.913 28.375C105.477 28.178 105.132 27.8883 104.879 27.5057C104.629 27.1193 104.504 26.6383 104.504 26.0625C104.504 25.5777 104.593 25.1705 104.771 24.8409C104.949 24.5114 105.191 24.2462 105.498 24.0455C105.805 23.8447 106.153 23.6932 106.543 23.5909C106.937 23.4886 107.35 23.4167 107.782 23.375C108.29 23.322 108.699 23.2727 109.009 23.2273C109.32 23.178 109.545 23.1061 109.686 23.0114C109.826 22.9167 109.896 22.7765 109.896 22.5909V22.5568C109.896 22.197 109.782 21.9186 109.555 21.7216C109.331 21.5246 109.013 21.4261 108.6 21.4261C108.165 21.4261 107.818 21.5227 107.561 21.7159C107.303 21.9053 107.132 22.1439 107.049 22.4318L104.811 22.25C104.924 21.7197 105.148 21.2614 105.481 20.875C105.814 20.4848 106.244 20.1856 106.771 19.9773C107.301 19.7652 107.915 19.6591 108.612 19.6591C109.096 19.6591 109.561 19.7159 110.004 19.8295C110.451 19.9432 110.846 20.1193 111.191 20.358C111.54 20.5966 111.814 20.9034 112.015 21.2784C112.216 21.6496 112.316 22.0947 112.316 22.6136V28.5H110.021V27.2898H109.953C109.812 27.5625 109.625 27.803 109.39 28.0114C109.155 28.2159 108.873 28.3769 108.543 28.4943C108.214 28.608 107.833 28.6648 107.401 28.6648ZM108.095 26.9943C108.451 26.9943 108.765 26.9242 109.038 26.7841C109.311 26.6402 109.525 26.447 109.68 26.2045C109.835 25.9621 109.913 25.6875 109.913 25.3807V24.4545C109.837 24.5038 109.733 24.5492 109.6 24.5909C109.471 24.6288 109.326 24.6648 109.163 24.6989C109 24.7292 108.837 24.7576 108.674 24.7841C108.511 24.8068 108.364 24.8277 108.231 24.8466C107.947 24.8883 107.699 24.9545 107.487 25.0455C107.275 25.1364 107.11 25.2595 106.992 25.4148C106.875 25.5663 106.816 25.7557 106.816 25.983C106.816 26.3125 106.936 26.5644 107.174 26.7386C107.417 26.9091 107.723 26.9943 108.095 26.9943ZM118.516 19.7727V21.5909H113.26V19.7727H118.516ZM114.454 17.6818H116.874V25.8182C116.874 26.0417 116.908 26.2159 116.976 26.3409C117.044 26.4621 117.139 26.5473 117.26 26.5966C117.385 26.6458 117.529 26.6705 117.692 26.6705C117.806 26.6705 117.919 26.661 118.033 26.642C118.147 26.6193 118.234 26.6023 118.294 26.5909L118.675 28.392C118.554 28.4299 118.384 28.4735 118.164 28.5227C117.944 28.5758 117.677 28.608 117.363 28.6193C116.779 28.642 116.268 28.5644 115.829 28.3864C115.393 28.2083 115.054 27.9318 114.812 27.5568C114.569 27.1818 114.45 26.7083 114.454 26.1364V17.6818ZM119.773 28.5V19.7727H122.193V28.5H119.773ZM120.989 18.6477C120.629 18.6477 120.32 18.5284 120.063 18.2898C119.809 18.0473 119.682 17.7576 119.682 17.4205C119.682 17.0871 119.809 16.8011 120.063 16.5625C120.32 16.3201 120.629 16.1989 120.989 16.1989C121.349 16.1989 121.655 16.3201 121.909 16.5625C122.167 16.8011 122.296 17.0871 122.296 17.4205C122.296 17.7576 122.167 18.0473 121.909 18.2898C121.655 18.5284 121.349 18.6477 120.989 18.6477ZM131.949 19.7727L128.897 28.5H126.17L123.119 19.7727H125.676L127.488 26.017H127.579L129.386 19.7727H131.949ZM136.563 28.6705C135.665 28.6705 134.893 28.4886 134.245 28.125C133.601 27.7576 133.105 27.2386 132.756 26.5682C132.408 25.8939 132.234 25.0966 132.234 24.1761C132.234 23.2784 132.408 22.4905 132.756 21.8125C133.105 21.1345 133.595 20.6061 134.228 20.2273C134.864 19.8485 135.611 19.6591 136.467 19.6591C137.042 19.6591 137.578 19.7519 138.075 19.9375C138.575 20.1193 139.01 20.3939 139.381 20.7614C139.756 21.1288 140.048 21.5909 140.256 22.1477C140.465 22.7008 140.569 23.3485 140.569 24.0909V24.7557H133.2V23.2557H138.29C138.29 22.9072 138.215 22.5985 138.063 22.3295C137.912 22.0606 137.701 21.8504 137.433 21.6989C137.167 21.5436 136.859 21.4659 136.506 21.4659C136.139 21.4659 135.813 21.5511 135.529 21.7216C135.249 21.8883 135.029 22.1136 134.87 22.3977C134.711 22.678 134.629 22.9905 134.626 23.3352V24.7614C134.626 25.1932 134.705 25.5663 134.864 25.8807C135.027 26.1951 135.256 26.4375 135.552 26.608C135.847 26.7784 136.198 26.8636 136.603 26.8636C136.872 26.8636 137.118 26.8258 137.342 26.75C137.565 26.6742 137.756 26.5606 137.915 26.4091C138.075 26.2576 138.196 26.072 138.279 25.8523L140.518 26C140.404 26.5379 140.171 27.0076 139.819 27.4091C139.47 27.8068 139.02 28.1174 138.467 28.3409C137.917 28.5606 137.283 28.6705 136.563 28.6705ZM147.263 28.5H144.626L148.643 16.8636H151.814L155.825 28.5H153.189L150.274 19.5227H150.183L147.263 28.5ZM147.098 23.9261H153.325V25.8466H147.098V23.9261ZM159.366 16.8636V28.5H156.906V16.8636H159.366Z" fill="black"/>
<path d="M193.923 17.9689C193.639 17.6681 193.177 17.6681 192.892 17.9689C192.607 18.2697 192.607 18.7573 192.892 19.0581L195.696 22.0193H185.486C185.083 22.0193 184.757 22.3642 184.757 22.7895C184.757 23.2149 185.083 23.5597 185.486 23.5597H195.844L192.892 26.677C192.607 26.9778 192.607 27.4654 192.892 27.7662C193.177 28.067 193.639 28.067 193.923 27.7662L198.046 23.4122C198.331 23.1114 198.331 22.6237 198.046 22.3229L197.977 22.2501C197.974 22.2466 197.97 22.2432 197.967 22.2397L193.923 17.9689Z" fill="#75767D"/>
</svg>
