<svg width="233" height="46" viewBox="0 0 233 46" fill="none" xmlns="http://www.w3.org/2000/svg">
<rect width="46" height="46" rx="23" fill="#E8FFEE"/>
<path d="M19 15C20.1046 15 21 15.8954 21 17V23.8271C20.1058 23.1373 18.966 22.7305 17.6644 22.5136L17.3356 24.4864C18.7162 24.7165 19.5974 25.1528 20.1402 25.7408C20.67 26.3147 21 27.167 21 28.5C21 29.8807 19.8807 31 18.5 31C17.1193 31 16 29.8807 16 28.5V28.1493C16.4301 28.2926 16.8763 28.4099 17.3356 28.4864L17.6644 26.5136C16.9215 26.3898 16.1752 26.1144 15.4291 25.7599C14.5816 25.3573 14 24.499 14 23.5C14 22.6653 14.2076 22.0085 14.5587 21.5257C14.9044 21.0504 15.4419 20.6703 16.2425 20.4701L17 20.2808V17C17 15.8954 17.8954 15 19 15ZM22 14.3542C21.2671 13.5238 20.1947 13 19 13C16.7909 13 15 14.7909 15 17V18.7742C14.149 19.1164 13.4514 19.6479 12.9413 20.3493C12.2924 21.2415 12 22.3347 12 23.5C12 25.0652 12.7957 26.4367 14 27.2422V28.5C14 30.9853 16.0147 33 18.5 33C19.9136 33 21.175 32.3482 22 31.3287C23.5 30 23 23.8271 23 23.8271V22V20.8042V19.6036C23 17.3945 23 19.1377 23 17C23 15.5 22 14.3542 22 14.3542Z" fill="#2EA823"/>
<path d="M32 17C32 16.4477 31.5523 16 31 16C30.4477 16 30 16.4477 30 17C30 17.5523 30.4477 18 31 18C31.5523 18 32 17.5523 32 17ZM31 14C32.6568 14 34 15.3432 34 17C34 18.6568 32.6568 20 31 20C29.6938 20 28.5825 19.1652 28.1707 18L28 18C26.8954 18 26 18.8954 26 20L26 26C26 27.1046 26.8954 28 28 28L28.1707 28C28.5825 26.8348 29.6938 26 31 26C32.6568 26 34 27.3431 34 29C34 30.6569 32.6568 32 31 32C29.6938 32 28.5825 31.1652 28.1707 30L28 30C25.7909 30 24 28.2091 24 26L24 24L21.8293 24L21.8293 22L24 22L24 20C24 17.7909 25.7909 16 28 16L28.1707 16C28.5825 14.8348 29.6938 14 31 14ZM32 29C32 28.4477 31.5523 28 31 28C30.4477 28 30 28.4477 30 29C30 29.5523 30.4477 30 31 30C31.5523 30 32 29.5523 32 29Z" fill="#2EA823"/>
<path d="M59.0114 16.8636H62.0455L65.25 24.6818H65.3864L68.5909 16.8636H71.625V28.5H69.2386V20.9261H69.142L66.1307 28.4432H64.5057L61.4943 20.8977H61.3977V28.5H59.0114V16.8636ZM75.7752 28.6648C75.2184 28.6648 74.7221 28.5682 74.2865 28.375C73.8509 28.178 73.5062 27.8883 73.2524 27.5057C73.0024 27.1193 72.8774 26.6383 72.8774 26.0625C72.8774 25.5777 72.9665 25.1705 73.1445 24.8409C73.3225 24.5114 73.5649 24.2462 73.8718 24.0455C74.1786 23.8447 74.5271 23.6932 74.9172 23.5909C75.3112 23.4886 75.724 23.4167 76.1559 23.375C76.6634 23.322 77.0725 23.2727 77.3831 23.2273C77.6937 23.178 77.9191 23.1061 78.0593 23.0114C78.1994 22.9167 78.2695 22.7765 78.2695 22.5909V22.5568C78.2695 22.197 78.1559 21.9186 77.9286 21.7216C77.7051 21.5246 77.3869 21.4261 76.974 21.4261C76.5384 21.4261 76.1918 21.5227 75.9343 21.7159C75.6767 21.9053 75.5062 22.1439 75.4229 22.4318L73.1843 22.25C73.2979 21.7197 73.5214 21.2614 73.8547 20.875C74.188 20.4848 74.618 20.1856 75.1445 19.9773C75.6748 19.7652 76.2884 19.6591 76.9854 19.6591C77.4702 19.6591 77.9343 19.7159 78.3774 19.8295C78.8244 19.9432 79.2202 20.1193 79.5649 20.358C79.9134 20.5966 80.188 20.9034 80.3888 21.2784C80.5896 21.6496 80.6899 22.0947 80.6899 22.6136V28.5H78.3945V27.2898H78.3263C78.1862 27.5625 77.9987 27.803 77.7638 28.0114C77.529 28.2159 77.2468 28.3769 76.9172 28.4943C76.5877 28.608 76.207 28.6648 75.7752 28.6648ZM76.4684 26.9943C76.8244 26.9943 77.1388 26.9242 77.4115 26.7841C77.6843 26.6402 77.8983 26.447 78.0536 26.2045C78.2089 25.9621 78.2865 25.6875 78.2865 25.3807V24.4545C78.2108 24.5038 78.1066 24.5492 77.974 24.5909C77.8452 24.6288 77.6994 24.6648 77.5365 24.6989C77.3737 24.7292 77.2108 24.7576 77.0479 24.7841C76.885 24.8068 76.7373 24.8277 76.6047 24.8466C76.3206 24.8883 76.0725 24.9545 75.8604 25.0455C75.6483 25.1364 75.4835 25.2595 75.3661 25.4148C75.2487 25.5663 75.1899 25.7557 75.1899 25.983C75.1899 26.3125 75.3093 26.5644 75.5479 26.7386C75.7903 26.9091 76.0971 26.9943 76.4684 26.9943ZM86.191 28.6705C85.297 28.6705 84.5281 28.4811 83.8841 28.1023C83.244 27.7197 82.7516 27.1894 82.4069 26.5114C82.066 25.8333 81.8955 25.053 81.8955 24.1705C81.8955 23.2765 82.0679 22.4924 82.4126 21.8182C82.761 21.1402 83.2554 20.6117 83.8955 20.233C84.5357 19.8504 85.297 19.6591 86.1796 19.6591C86.941 19.6591 87.6076 19.7973 88.1796 20.0739C88.7516 20.3504 89.2042 20.7386 89.5376 21.2386C89.8709 21.7386 90.0546 22.3258 90.0887 23H87.8046C87.7402 22.5644 87.5698 22.214 87.2932 21.9489C87.0205 21.6799 86.6626 21.5455 86.2194 21.5455C85.8444 21.5455 85.5167 21.6477 85.2364 21.8523C84.9599 22.053 84.744 22.3466 84.5887 22.733C84.4334 23.1193 84.3557 23.5871 84.3557 24.1364C84.3557 24.6932 84.4315 25.1667 84.583 25.5568C84.7383 25.947 84.9561 26.2443 85.2364 26.4489C85.5167 26.6534 85.8444 26.7557 86.2194 26.7557C86.4959 26.7557 86.744 26.6989 86.9637 26.5852C87.1872 26.4716 87.3709 26.3068 87.5148 26.0909C87.6626 25.8712 87.7591 25.608 87.8046 25.3011H90.0887C90.0508 25.9678 89.869 26.5549 89.5432 27.0625C89.2213 27.5663 88.7762 27.9602 88.208 28.2443C87.6398 28.5284 86.9675 28.6705 86.191 28.6705ZM93.7389 23.4545V28.5H91.3184V16.8636H93.6707V21.3125H93.773C93.9699 20.7973 94.2881 20.3939 94.7275 20.1023C95.1669 19.8068 95.718 19.6591 96.3809 19.6591C96.987 19.6591 97.5154 19.7917 97.9661 20.0568C98.4207 20.3182 98.773 20.6951 99.023 21.1875C99.2767 21.6761 99.4017 22.2614 99.398 22.9432V28.5H96.9775V23.375C96.9813 22.8371 96.8449 22.4186 96.5684 22.1193C96.2957 21.8201 95.9131 21.6705 95.4207 21.6705C95.0911 21.6705 94.7995 21.7405 94.5457 21.8807C94.2957 22.0208 94.0987 22.2254 93.9548 22.4943C93.8146 22.7595 93.7427 23.0795 93.7389 23.4545ZM100.983 28.5V19.7727H103.403V28.5H100.983ZM102.199 18.6477C101.839 18.6477 101.53 18.5284 101.273 18.2898C101.019 18.0473 100.892 17.7576 100.892 17.4205C100.892 17.0871 101.019 16.8011 101.273 16.5625C101.53 16.3201 101.839 16.1989 102.199 16.1989C102.559 16.1989 102.865 16.3201 103.119 16.5625C103.377 16.8011 103.506 17.0871 103.506 17.4205C103.506 17.7576 103.377 18.0473 103.119 18.2898C102.865 18.5284 102.559 18.6477 102.199 18.6477ZM107.443 23.4545V28.5H105.022V19.7727H107.329V21.3125H107.431C107.624 20.8049 107.948 20.4034 108.403 20.108C108.857 19.8087 109.409 19.6591 110.056 19.6591C110.662 19.6591 111.191 19.7917 111.641 20.0568C112.092 20.322 112.443 20.7008 112.693 21.1932C112.943 21.6818 113.068 22.2652 113.068 22.9432V28.5H110.647V23.375C110.651 22.8409 110.515 22.4242 110.238 22.125C109.962 21.822 109.581 21.6705 109.096 21.6705C108.77 21.6705 108.482 21.7405 108.232 21.8807C107.986 22.0208 107.793 22.2254 107.653 22.4943C107.516 22.7595 107.446 23.0795 107.443 23.4545ZM118.633 28.6705C117.735 28.6705 116.962 28.4886 116.314 28.125C115.67 27.7576 115.174 27.2386 114.826 26.5682C114.477 25.8939 114.303 25.0966 114.303 24.1761C114.303 23.2784 114.477 22.4905 114.826 21.8125C115.174 21.1345 115.665 20.6061 116.297 20.2273C116.934 19.8485 117.68 19.6591 118.536 19.6591C119.112 19.6591 119.648 19.7519 120.144 19.9375C120.644 20.1193 121.08 20.3939 121.451 20.7614C121.826 21.1288 122.117 21.5909 122.326 22.1477C122.534 22.7008 122.638 23.3485 122.638 24.0909V24.7557H115.269V23.2557H120.36C120.36 22.9072 120.284 22.5985 120.133 22.3295C119.981 22.0606 119.771 21.8504 119.502 21.6989C119.237 21.5436 118.928 21.4659 118.576 21.4659C118.208 21.4659 117.883 21.5511 117.598 21.7216C117.318 21.8883 117.098 22.1136 116.939 22.3977C116.78 22.678 116.699 22.9905 116.695 23.3352V24.7614C116.695 25.1932 116.775 25.5663 116.934 25.8807C117.097 26.1951 117.326 26.4375 117.621 26.608C117.917 26.7784 118.267 26.8636 118.672 26.8636C118.941 26.8636 119.187 26.8258 119.411 26.75C119.634 26.6742 119.826 26.5606 119.985 26.4091C120.144 26.2576 120.265 26.072 120.348 25.8523L122.587 26C122.473 26.5379 122.241 27.0076 121.888 27.4091C121.54 27.8068 121.089 28.1174 120.536 28.3409C119.987 28.5606 119.352 28.6705 118.633 28.6705ZM127.326 28.5V16.8636H129.787V26.4716H134.775V28.5H127.326ZM140.016 28.6705C139.119 28.6705 138.346 28.4886 137.698 28.125C137.054 27.7576 136.558 27.2386 136.209 26.5682C135.861 25.8939 135.687 25.0966 135.687 24.1761C135.687 23.2784 135.861 22.4905 136.209 21.8125C136.558 21.1345 137.049 20.6061 137.681 20.2273C138.317 19.8485 139.064 19.6591 139.92 19.6591C140.495 19.6591 141.031 19.7519 141.528 19.9375C142.028 20.1193 142.463 20.3939 142.834 20.7614C143.209 21.1288 143.501 21.5909 143.709 22.1477C143.918 22.7008 144.022 23.3485 144.022 24.0909V24.7557H136.653V23.2557H141.744C141.744 22.9072 141.668 22.5985 141.516 22.3295C141.365 22.0606 141.155 21.8504 140.886 21.6989C140.62 21.5436 140.312 21.4659 139.959 21.4659C139.592 21.4659 139.266 21.5511 138.982 21.7216C138.702 21.8883 138.482 22.1136 138.323 22.3977C138.164 22.678 138.083 22.9905 138.079 23.3352V24.7614C138.079 25.1932 138.158 25.5663 138.317 25.8807C138.48 26.1951 138.709 26.4375 139.005 26.608C139.3 26.7784 139.651 26.8636 140.056 26.8636C140.325 26.8636 140.571 26.8258 140.795 26.75C141.018 26.6742 141.209 26.5606 141.369 26.4091C141.528 26.2576 141.649 26.072 141.732 25.8523L143.971 26C143.857 26.5379 143.624 27.0076 143.272 27.4091C142.924 27.8068 142.473 28.1174 141.92 28.3409C141.37 28.5606 140.736 28.6705 140.016 28.6705ZM147.77 28.6648C147.213 28.6648 146.717 28.5682 146.282 28.375C145.846 28.178 145.501 27.8883 145.247 27.5057C144.997 27.1193 144.872 26.6383 144.872 26.0625C144.872 25.5777 144.961 25.1705 145.139 24.8409C145.318 24.5114 145.56 24.2462 145.867 24.0455C146.174 23.8447 146.522 23.6932 146.912 23.5909C147.306 23.4886 147.719 23.4167 148.151 23.375C148.658 23.322 149.068 23.2727 149.378 23.2273C149.689 23.178 149.914 23.1061 150.054 23.0114C150.194 22.9167 150.264 22.7765 150.264 22.5909V22.5568C150.264 22.197 150.151 21.9186 149.924 21.7216C149.7 21.5246 149.382 21.4261 148.969 21.4261C148.533 21.4261 148.187 21.5227 147.929 21.7159C147.672 21.9053 147.501 22.1439 147.418 22.4318L145.179 22.25C145.293 21.7197 145.516 21.2614 145.85 20.875C146.183 20.4848 146.613 20.1856 147.139 19.9773C147.67 19.7652 148.283 19.6591 148.98 19.6591C149.465 19.6591 149.929 19.7159 150.372 19.8295C150.819 19.9432 151.215 20.1193 151.56 20.358C151.908 20.5966 152.183 20.9034 152.384 21.2784C152.585 21.6496 152.685 22.0947 152.685 22.6136V28.5H150.389V27.2898H150.321C150.181 27.5625 149.994 27.803 149.759 28.0114C149.524 28.2159 149.242 28.3769 148.912 28.4943C148.583 28.608 148.202 28.6648 147.77 28.6648ZM148.463 26.9943C148.819 26.9943 149.134 26.9242 149.407 26.7841C149.679 26.6402 149.893 26.447 150.049 26.2045C150.204 25.9621 150.282 25.6875 150.282 25.3807V24.4545C150.206 24.5038 150.102 24.5492 149.969 24.5909C149.84 24.6288 149.694 24.6648 149.532 24.6989C149.369 24.7292 149.206 24.7576 149.043 24.7841C148.88 24.8068 148.732 24.8277 148.6 24.8466C148.316 24.8883 148.068 24.9545 147.855 25.0455C147.643 25.1364 147.479 25.2595 147.361 25.4148C147.244 25.5663 147.185 25.7557 147.185 25.983C147.185 26.3125 147.304 26.5644 147.543 26.7386C147.785 26.9091 148.092 26.9943 148.463 26.9943ZM154.243 28.5V19.7727H156.589V21.2955H156.68C156.839 20.7538 157.106 20.3447 157.481 20.0682C157.856 19.7879 158.288 19.6477 158.777 19.6477C158.898 19.6477 159.029 19.6553 159.169 19.6705C159.309 19.6856 159.432 19.7064 159.538 19.733V21.8807C159.425 21.8466 159.267 21.8163 159.067 21.7898C158.866 21.7633 158.682 21.75 158.516 21.75C158.159 21.75 157.841 21.8277 157.561 21.983C157.284 22.1345 157.065 22.3466 156.902 22.6193C156.743 22.892 156.663 23.2064 156.663 23.5625V28.5H154.243ZM162.89 23.4545V28.5H160.47V19.7727H162.776V21.3125H162.879C163.072 20.8049 163.396 20.4034 163.85 20.108C164.305 19.8087 164.856 19.6591 165.504 19.6591C166.11 19.6591 166.638 19.7917 167.089 20.0568C167.54 20.322 167.89 20.7008 168.14 21.1932C168.39 21.6818 168.515 22.2652 168.515 22.9432V28.5H166.095V23.375C166.098 22.8409 165.962 22.4242 165.686 22.125C165.409 21.822 165.028 21.6705 164.544 21.6705C164.218 21.6705 163.93 21.7405 163.68 21.8807C163.434 22.0208 163.24 22.2254 163.1 22.4943C162.964 22.7595 162.894 23.0795 162.89 23.4545ZM170.103 28.5V19.7727H172.523V28.5H170.103ZM171.319 18.6477C170.959 18.6477 170.65 18.5284 170.393 18.2898C170.139 18.0473 170.012 17.7576 170.012 17.4205C170.012 17.0871 170.139 16.8011 170.393 16.5625C170.65 16.3201 170.959 16.1989 171.319 16.1989C171.679 16.1989 171.985 16.3201 172.239 16.5625C172.497 16.8011 172.626 17.0871 172.626 17.4205C172.626 17.7576 172.497 18.0473 172.239 18.2898C171.985 18.5284 171.679 18.6477 171.319 18.6477ZM176.563 23.4545V28.5H174.142V19.7727H176.449V21.3125H176.551C176.744 20.8049 177.068 20.4034 177.523 20.108C177.977 19.8087 178.529 19.6591 179.176 19.6591C179.782 19.6591 180.311 19.7917 180.761 20.0568C181.212 20.322 181.563 20.7008 181.813 21.1932C182.063 21.6818 182.188 22.2652 182.188 22.9432V28.5H179.767V23.375C179.771 22.8409 179.635 22.4242 179.358 22.125C179.082 21.822 178.701 21.6705 178.216 21.6705C177.89 21.6705 177.602 21.7405 177.352 21.8807C177.106 22.0208 176.913 22.2254 176.773 22.4943C176.636 22.7595 176.566 23.0795 176.563 23.4545ZM187.707 31.9545C186.923 31.9545 186.251 31.8466 185.69 31.6307C185.133 31.4186 184.69 31.1288 184.361 30.7614C184.031 30.3939 183.817 29.9811 183.718 29.5227L185.957 29.2216C186.025 29.3958 186.133 29.5587 186.281 29.7102C186.429 29.8617 186.624 29.983 186.866 30.0739C187.112 30.1686 187.412 30.2159 187.764 30.2159C188.29 30.2159 188.724 30.0871 189.065 29.8295C189.41 29.5758 189.582 29.1496 189.582 28.5511V26.9545H189.48C189.374 27.197 189.215 27.4261 189.003 27.642C188.79 27.858 188.518 28.0341 188.184 28.1705C187.851 28.3068 187.453 28.375 186.991 28.375C186.336 28.375 185.739 28.2235 185.201 27.9205C184.667 27.6136 184.241 27.1458 183.923 26.517C183.609 25.8845 183.451 25.0852 183.451 24.1193C183.451 23.1307 183.612 22.3049 183.934 21.642C184.256 20.9792 184.684 20.483 185.218 20.1534C185.756 19.8239 186.345 19.6591 186.986 19.6591C187.474 19.6591 187.883 19.7424 188.213 19.9091C188.542 20.072 188.807 20.2765 189.008 20.5227C189.213 20.7652 189.37 21.0038 189.48 21.2386H189.571V19.7727H191.974V28.5852C191.974 29.3277 191.792 29.9489 191.429 30.4489C191.065 30.9489 190.561 31.3239 189.917 31.5739C189.277 31.8277 188.54 31.9545 187.707 31.9545ZM187.758 26.5568C188.148 26.5568 188.478 26.4602 188.747 26.267C189.02 26.0701 189.228 25.7898 189.372 25.4261C189.52 25.0587 189.593 24.6193 189.593 24.108C189.593 23.5966 189.521 23.1534 189.378 22.7784C189.234 22.3996 189.025 22.1061 188.753 21.8977C188.48 21.6894 188.148 21.5852 187.758 21.5852C187.361 21.5852 187.025 21.6932 186.753 21.9091C186.48 22.1212 186.273 22.4167 186.133 22.7955C185.993 23.1742 185.923 23.6117 185.923 24.108C185.923 24.6117 185.993 25.0473 186.133 25.4148C186.277 25.7784 186.484 26.0606 186.753 26.2614C187.025 26.4583 187.361 26.5568 187.758 26.5568Z" fill="black"/>
<path d="M222.923 17.9689C222.639 17.6681 222.177 17.6681 221.892 17.9689C221.607 18.2697 221.607 18.7573 221.892 19.0581L224.696 22.0193H214.486C214.083 22.0193 213.757 22.3642 213.757 22.7895C213.757 23.2149 214.083 23.5597 214.486 23.5597H224.844L221.892 26.677C221.607 26.9778 221.607 27.4654 221.892 27.7662C222.177 28.067 222.639 28.067 222.923 27.7662L227.046 23.4122C227.331 23.1114 227.331 22.6237 227.046 22.3229L226.977 22.2501C226.974 22.2466 226.97 22.2432 226.967 22.2397L222.923 17.9689Z" fill="#75767D"/>
</svg>
